<?xml version="1.0" encoding="utf-8"?>
<!-- Generator: Adobe Illustrator 27.5.0, SVG Export Plug-In . SVG Version: 6.00 Build 0)  -->
<svg version="1.1" xmlns="http://www.w3.org/2000/svg" xmlns:xlink="http://www.w3.org/1999/xlink" x="0px" y="0px"
	 viewBox="0 0 360 360" style="enable-background:new 0 0 360 360;" xml:space="preserve">
<style type="text/css">
	.st0{display:none;}
	.st1{display:inline;}
	.st2{fill:#FFFFFF;}
	.st3{fill:#003A5D;}
</style>
<g id="Castle_White_Reversed" class="st0">
	<g class="st1">
		<path class="st2" d="M218.2,338.9v-137c0-21.2-17.1-38.2-38.2-38.2s-38.2,17.2-38.2,38.2v137c-49.3,2.4-96.8,9.4-141.7,20.5
			l32.1-21.5V99.2l55.5-37v55.5l37-24.6V37.6l55.4-37l55.4,37v55.5l37,24.6V62.2l55.5,37v238.7l32.2,21.5
			C315,348.3,267.5,341.3,218.2,338.9z"/>
	</g>
</g>
<g id="Castle_Blue">
	<g>
		<path class="st3" d="M218.2,338.9v-137c0-21.2-17.1-38.2-38.2-38.2s-38.2,17.2-38.2,38.2v137c-49.3,2.4-96.8,9.4-141.7,20.5
			l32.1-21.5V99.2l55.5-37v55.5l37-24.6V37.6l55.4-37l55.4,37v55.5l37,24.6V62.2l55.5,37v238.7l32.2,21.5
			C315,348.3,267.5,341.3,218.2,338.9z"/>
	</g>
</g>
</svg>
